<?xml version="1.0" standalone="no"?>
<!DOCTYPE svg PUBLIC "-//W3C//DTD SVG 20010904//EN"
 "http://www.w3.org/TR/2001/REC-SVG-20010904/DTD/svg10.dtd">
<svg version="1.0" xmlns="http://www.w3.org/2000/svg"
 width="1080.000000pt" height="1920.000000pt" viewBox="0 0 1080.000000 1920.000000"
 preserveAspectRatio="xMidYMid meet">

<g transform="translate(0.000000,1920.000000) scale(0.100000,-0.100000)"
fill="#000000" stroke="none">
<path d="M5485 14620 c-27 -16 -56 -29 -62 -29 -7 -1 -45 -22 -85 -48 -81 -51
-116 -72 -198 -115 -30 -16 -62 -36 -70 -43 -8 -7 -51 -32 -95 -56 -44 -23
-97 -53 -117 -65 -21 -13 -42 -24 -48 -24 -5 0 -10 -4 -10 -8 0 -9 -76 -52
-91 -52 -5 0 -32 -16 -59 -35 -27 -19 -52 -35 -56 -35 -3 0 -25 -13 -49 -30
-24 -16 -48 -30 -54 -30 -6 0 -41 -20 -78 -44 -75 -48 -117 -72 -213 -123 -36
-19 -74 -43 -85 -52 -11 -9 -42 -28 -70 -41 -27 -14 -81 -45 -120 -69 -93 -59
-133 -81 -147 -81 -6 0 -33 -16 -59 -35 -27 -19 -84 -53 -125 -76 -42 -22 -93
-51 -114 -64 -46 -29 -110 -102 -110 -126 0 -10 -4 -21 -10 -24 -5 -3 -10 -45
-10 -92 0 -48 5 -102 10 -120 6 -18 15 -50 21 -70 16 -53 96 -216 117 -239 9
-11 34 -41 56 -67 42 -53 125 -118 201 -158 28 -14 79 -45 114 -67 35 -23 68
-42 72 -42 5 0 32 -15 61 -33 29 -18 66 -39 81 -47 43 -22 32 -48 -38 -85 -33
-17 -102 -57 -154 -88 -52 -31 -98 -57 -103 -57 -5 0 -46 -24 -91 -53 -45 -29
-113 -68 -152 -87 -80 -40 -175 -125 -175 -157 0 -12 -4 -25 -10 -28 -13 -8
-13 -202 0 -210 6 -3 10 -16 10 -28 0 -44 78 -215 133 -290 77 -107 140 -160
272 -231 38 -21 72 -41 75 -44 6 -8 42 -29 85 -50 43 -22 169 -95 175 -103 3
-3 35 -21 72 -38 37 -18 72 -39 79 -47 6 -8 16 -14 21 -14 5 0 36 -18 69 -41
33 -22 76 -47 96 -56 20 -8 62 -32 92 -52 31 -20 90 -54 131 -76 41 -21 94
-51 117 -66 22 -16 70 -44 105 -62 73 -38 114 -62 182 -106 28 -17 53 -31 58
-31 4 0 39 -20 78 -45 39 -25 72 -45 75 -45 2 0 26 -14 52 -30 l48 -31 5 416
5 416 30 17 c17 9 32 20 35 23 8 9 90 60 145 89 75 40 98 53 120 71 31 25 114
69 130 69 8 0 15 4 15 9 0 5 15 16 33 24 18 9 49 27 69 41 58 39 127 76 143
76 7 0 15 4 17 9 4 11 145 101 158 101 6 0 10 5 10 10 0 6 11 10 25 10 14 0
25 5 25 10 0 6 6 10 13 10 8 0 21 8 30 18 9 9 33 26 54 37 21 11 40 22 43 25
3 3 28 16 55 30 28 14 71 39 96 57 26 18 51 33 58 33 6 0 11 3 11 8 0 9 49 32
68 32 8 0 22 8 31 19 9 10 40 31 69 47 28 15 52 32 52 36 0 4 6 8 13 8 6 0 23
9 37 20 14 11 33 20 42 20 9 0 29 11 44 25 15 14 33 25 40 25 8 0 14 5 14 10
0 6 5 10 11 10 6 0 30 14 54 30 24 17 50 30 59 30 8 0 19 6 23 13 4 6 20 18
36 26 23 12 27 21 27 56 0 32 -6 46 -25 63 -14 12 -32 22 -40 22 -8 0 -15 5
-15 10 0 6 -9 10 -20 10 -11 0 -20 3 -20 8 0 4 -17 15 -37 24 -21 9 -47 24
-59 35 -22 20 -40 31 -124 76 -30 16 -65 36 -77 43 -19 12 -28 10 -83 -21 -34
-19 -66 -35 -71 -35 -5 0 -9 -4 -9 -8 0 -5 -16 -14 -35 -22 -19 -8 -35 -17
-35 -20 0 -3 -19 -16 -42 -29 -24 -12 -65 -35 -93 -49 -27 -15 -52 -29 -55
-32 -3 -3 -18 -12 -35 -20 -16 -8 -38 -22 -48 -32 -11 -9 -30 -19 -45 -23 -14
-3 -44 -19 -68 -36 -23 -16 -47 -29 -53 -29 -6 0 -11 -4 -11 -10 0 -5 -7 -10
-15 -10 -8 0 -15 -4 -15 -10 0 -5 -9 -10 -20 -10 -11 0 -20 -4 -20 -10 0 -5
-9 -10 -19 -10 -11 0 -23 -4 -26 -10 -3 -5 -21 -17 -39 -25 -18 -9 -42 -24
-52 -33 -23 -21 -101 -62 -118 -62 -7 0 -21 -8 -32 -19 -11 -10 -42 -31 -70
-46 -27 -15 -53 -31 -59 -35 -21 -16 -86 -50 -97 -50 -7 0 -21 -8 -32 -19 -12
-10 -43 -31 -71 -46 -27 -15 -62 -36 -78 -47 -15 -11 -37 -18 -50 -16 l-22 3
-3 414 c-2 401 -2 415 17 433 11 10 24 18 29 18 4 0 17 8 28 18 24 22 68 49
169 102 44 23 89 50 100 59 11 10 47 31 80 48 67 33 108 55 115 63 13 13 91
60 100 60 5 0 10 5 10 10 0 6 11 10 25 10 14 0 25 5 25 10 0 6 6 10 13 10 7 0
22 8 33 18 28 25 102 72 114 72 5 0 10 3 10 8 0 7 48 32 63 32 5 0 37 20 71
43 33 24 76 50 94 58 17 8 32 17 32 21 0 5 9 8 20 8 11 0 20 3 20 8 0 4 18 16
40 26 22 10 47 26 57 36 10 9 33 23 51 30 17 8 32 18 32 22 0 5 11 8 24 8 13
0 34 11 47 25 13 13 30 25 37 25 6 0 12 3 12 8 0 4 15 14 33 22 17 7 41 22 51
32 11 10 30 18 43 18 13 0 23 5 23 10 0 6 6 10 13 10 7 0 23 10 37 23 14 13
45 34 70 48 25 13 47 27 48 32 2 4 10 7 18 7 8 0 14 4 14 9 0 5 12 12 26 15
14 4 35 16 47 26 11 11 27 20 34 20 7 0 13 11 13 25 0 16 6 25 15 25 8 0 15 5
15 10 0 6 -7 10 -15 10 -8 0 -15 7 -15 16 0 9 -9 18 -20 21 -11 3 -20 9 -20
14 0 5 -7 9 -15 9 -9 0 -25 9 -37 20 -12 11 -29 20 -38 20 -10 0 -29 11 -44
25 -15 14 -34 25 -42 25 -7 0 -14 4 -14 9 0 5 -38 28 -86 52 -47 24 -90 49
-96 56 -6 7 -17 13 -24 13 -8 0 -14 5 -14 10 0 6 -7 10 -15 10 -9 0 -25 9 -37
19 -11 11 -46 33 -77 48 -30 15 -62 34 -69 41 -8 7 -33 21 -57 32 -24 11 -49
26 -57 33 -19 19 -108 67 -124 67 -8 0 -14 5 -14 10 0 6 -6 10 -13 10 -7 0
-23 9 -35 20 -12 11 -24 20 -28 20 -3 0 -18 8 -32 18 -15 11 -56 35 -92 54
-36 19 -91 51 -122 71 -31 20 -64 37 -73 37 -8 0 -15 4 -15 8 0 5 -21 19 -47
32 -27 13 -69 38 -94 56 -26 18 -77 46 -115 64 -38 17 -77 36 -86 41 -10 5
-46 9 -80 8 -49 -1 -74 -7 -113 -29z m-1840 -1264 c28 -13 57 -29 65 -37 8 -8
42 -28 75 -43 33 -16 102 -55 154 -88 51 -32 97 -58 101 -58 11 0 50 -21 85
-46 33 -24 78 -50 175 -102 36 -19 76 -42 90 -52 29 -20 77 -48 170 -98 36
-19 84 -47 107 -63 23 -16 46 -29 52 -29 6 0 11 -4 11 -10 0 -5 7 -10 15 -10
17 0 199 -107 203 -121 2 -5 13 -9 25 -10 12 0 34 -8 49 -17 86 -55 181 -111
231 -137 34 -18 60 -38 63 -50 2 -11 3 -150 2 -310 l-3 -290 -22 -3 c-13 -2
-23 1 -23 7 0 6 -5 11 -11 11 -6 0 -31 15 -57 32 -57 40 -90 58 -106 58 -7 0
-22 9 -34 20 -12 11 -24 20 -27 20 -4 0 -38 20 -76 45 -38 25 -74 45 -79 45
-12 0 -75 35 -115 64 -32 23 -39 27 -128 75 -32 17 -72 40 -88 52 -16 11 -33
17 -39 14 -6 -4 -10 -158 -10 -436 0 -373 2 -429 15 -429 8 0 47 -21 87 -47
91 -58 136 -83 148 -83 5 0 40 -19 77 -43 37 -23 80 -49 96 -57 15 -7 27 -17
27 -22 0 -4 7 -8 15 -8 15 0 106 -48 115 -60 6 -9 64 -43 147 -85 102 -52 93
-18 93 -357 0 -262 -2 -299 -16 -305 -17 -6 -52 9 -102 45 -29 21 -109 66
-169 96 -13 6 -23 14 -23 19 0 4 -5 7 -10 7 -12 0 -94 52 -98 63 -2 4 -10 7
-18 7 -14 0 -71 30 -114 60 -14 9 -52 32 -85 50 -133 73 -151 83 -180 104 -33
23 -35 25 -148 85 -44 23 -100 58 -127 77 -26 19 -54 34 -61 35 -8 0 -26 8
-41 17 -14 9 -56 35 -92 57 -36 21 -66 43 -66 47 0 4 -7 8 -15 8 -17 0 -68 27
-142 76 -28 19 -55 34 -59 34 -31 0 -160 132 -200 205 -6 11 -25 45 -42 76
-58 103 -80 210 -67 316 16 131 115 148 268 45 23 -16 67 -40 97 -55 58 -29
62 -31 152 -89 31 -21 61 -38 66 -38 13 0 51 -20 89 -47 60 -43 59 -45 66 195
4 119 10 310 14 423 l6 207 -39 18 c-21 10 -62 33 -91 51 -29 18 -56 33 -61
33 -5 0 -17 9 -27 20 -10 11 -24 20 -31 20 -15 0 -74 32 -119 64 -16 11 -39
26 -50 32 -58 31 -76 44 -141 110 -38 39 -82 93 -96 120 -14 28 -35 66 -45 85
-46 83 -57 131 -58 242 l0 109 33 29 c41 37 96 39 167 5z"/>
<path d="M6968 13133 c7 -3 16 -2 19 1 4 3 -2 6 -13 5 -11 0 -14 -3 -6 -6z"/>
<path d="M6853 13078 c-13 -6 -23 -15 -23 -20 0 -5 11 -1 25 8 37 24 35 30 -2
12z"/>
<path d="M6760 13019 c-25 -14 -29 -19 -15 -19 20 1 62 26 54 34 -2 2 -20 -5
-39 -15z"/>
<path d="M7126 13015 c-11 -8 -15 -15 -9 -15 6 0 16 7 23 15 16 19 11 19 -14
0z"/>
<path d="M6590 12924 c-41 -26 -113 -67 -159 -91 -47 -24 -97 -53 -112 -64
-15 -10 -30 -19 -33 -19 -4 0 -16 -9 -28 -20 -12 -11 -30 -20 -40 -20 -10 0
-18 -4 -18 -10 0 -5 -7 -10 -15 -10 -8 0 -45 -20 -82 -44 -86 -55 -141 -86
-154 -86 -5 0 -37 -18 -69 -40 -33 -22 -98 -60 -145 -85 -91 -47 -175 -103
-175 -117 0 -14 24 -8 50 12 14 11 31 20 38 20 6 0 12 5 12 10 0 6 5 10 11 10
6 0 29 13 52 29 23 15 63 38 88 49 25 12 52 28 59 37 7 8 17 15 22 15 5 0 41
20 79 45 38 25 74 45 79 45 11 0 51 21 60 30 12 14 70 51 130 82 92 49 112 61
135 79 31 25 114 69 130 69 8 0 15 5 15 10 0 6 6 10 13 10 7 0 22 8 33 19 11
10 42 31 70 46 58 32 62 35 43 35 -8 0 -48 -21 -89 -46z"/>
<path d="M6980 12939 c-19 -12 -37 -25 -40 -29 -3 -3 -20 -13 -37 -21 -18 -8
-33 -17 -33 -21 0 -5 -7 -8 -16 -8 -8 0 -22 -7 -30 -15 -17 -17 -12 -19 14 -6
9 5 31 15 47 22 17 8 41 24 55 37 14 12 37 28 53 35 15 6 27 15 27 19 0 11 0
11 -40 -13z"/>
<path d="M6760 12813 c-8 -3 -34 -19 -57 -34 -23 -16 -46 -29 -52 -29 -6 0
-11 -4 -11 -10 0 -5 -7 -10 -15 -10 -8 0 -15 -4 -15 -10 0 -5 -9 -10 -20 -10
-11 0 -20 -4 -20 -10 0 -5 -7 -10 -16 -10 -8 0 -47 -20 -85 -45 -38 -25 -74
-45 -79 -45 -6 0 -10 -4 -10 -8 0 -5 -19 -15 -42 -22 -24 -8 -45 -17 -48 -20
-14 -18 -185 -120 -200 -120 -5 0 -48 -25 -95 -55 -46 -30 -88 -55 -92 -55 -5
0 -19 -9 -33 -20 -14 -11 -31 -20 -38 -20 -23 0 -82 -45 -82 -62 0 -10 5 -18
10 -18 6 0 10 5 10 10 0 6 5 10 11 10 6 0 34 15 62 34 29 19 75 44 102 57 28
13 59 31 69 41 11 10 23 18 28 18 5 0 30 15 56 33 67 45 89 57 107 57 8 0 15
5 15 10 0 6 6 10 13 10 7 0 22 8 33 18 20 18 83 57 168 102 28 15 83 48 123
73 39 26 80 47 90 47 10 0 25 9 33 20 8 11 18 20 22 20 5 0 29 13 56 30 42 26
43 38 2 23z"/>
<path d="M6976 12735 c-11 -9 -14 -15 -7 -15 7 0 19 7 27 15 20 19 5 19 -20 0z"/>
<path d="M6790 12630 c0 -5 -7 -10 -15 -10 -8 0 -15 -4 -15 -9 0 -5 -10 -12
-22 -14 -20 -4 -19 -4 5 -6 15 0 27 4 27 9 0 6 5 10 11 10 6 0 17 7 25 15 14
13 14 15 0 15 -9 0 -16 -4 -16 -10z"/>
<path d="M6685 12570 c-3 -5 -13 -10 -21 -10 -8 0 -37 -16 -64 -35 -27 -19
-54 -35 -59 -35 -5 0 -11 -4 -13 -8 -1 -4 -19 -15 -38 -25 -29 -14 -31 -17
-12 -17 12 0 22 5 22 10 0 6 7 10 15 10 8 0 56 27 107 60 51 33 88 60 81 60
-6 0 -15 -4 -18 -10z"/>
<path d="M6374 12399 c-125 -80 -153 -97 -204 -122 -54 -26 -68 -34 -120 -68
-44 -29 -100 -59 -110 -59 -5 0 -47 -24 -92 -53 -46 -29 -105 -63 -133 -77
-65 -32 -135 -78 -135 -90 0 -17 34 -11 60 10 14 11 29 20 34 20 5 0 23 11 41
24 44 34 103 66 120 66 8 0 15 4 15 8 0 5 12 15 28 23 15 8 57 33 94 56 36 24
74 43 82 43 9 0 16 5 16 10 0 6 5 10 11 10 5 0 36 17 67 38 31 21 82 52 112
68 95 50 204 124 183 124 -11 0 -42 -14 -69 -31z"/>
<path d="M6988 11643 c7 -3 16 -2 19 1 4 3 -2 6 -13 5 -11 0 -14 -3 -6 -6z"/>
<path d="M6885 11590 c-3 -5 -2 -10 4 -10 5 0 13 5 16 10 3 6 2 10 -4 10 -5 0
-13 -4 -16 -10z"/>
<path d="M6850 11569 c0 -5 5 -7 10 -4 6 3 10 8 10 11 0 2 -4 4 -10 4 -5 0
-10 -5 -10 -11z"/>
<path d="M6780 11529 c-30 -16 -32 -19 -12 -19 13 0 30 7 39 15 23 24 12 25
-27 4z"/>
<path d="M7128 11513 c6 -2 18 -2 25 0 6 3 1 5 -13 5 -14 0 -19 -2 -12 -5z"/>
<path d="M6625 11444 c-49 -31 -91 -59 -93 -65 -2 -5 -12 -9 -22 -9 -10 0 -22
-4 -25 -10 -3 -5 -13 -10 -22 -10 -9 0 -30 -10 -47 -23 -17 -13 -51 -34 -76
-48 -25 -13 -52 -32 -61 -41 -9 -10 -23 -18 -32 -18 -9 0 -19 -4 -22 -10 -3
-5 -13 -10 -22 -10 -9 0 -30 -10 -47 -23 -17 -13 -51 -34 -76 -48 -25 -13 -54
-32 -64 -41 -11 -10 -26 -18 -33 -18 -14 0 -81 -36 -103 -56 -9 -7 -49 -31
-90 -52 -141 -73 -246 -142 -216 -142 26 0 121 49 157 80 10 8 44 28 76 45 32
16 77 42 100 57 23 15 45 28 49 28 4 0 21 10 38 23 17 12 54 34 81 47 28 14
56 31 64 38 8 8 24 18 35 23 21 9 39 19 88 52 14 9 33 17 42 17 9 0 16 5 16
10 0 6 5 10 11 10 6 0 39 19 73 43 33 23 84 54 111 67 51 25 186 108 195 121
3 4 14 9 25 12 l20 5 -20 0 c-11 0 -60 -24 -110 -54z"/>
<path d="M7005 11449 c-16 -10 -34 -22 -40 -26 -5 -5 -26 -16 -45 -26 -29 -14
-31 -17 -12 -17 12 0 22 5 22 10 0 6 4 10 10 10 5 0 25 11 45 24 20 14 41 27
48 29 7 2 10 7 7 9 -3 3 -18 -3 -35 -13z"/>
<path d="M6858 11363 c6 -2 18 -2 25 0 6 3 1 5 -13 5 -14 0 -19 -2 -12 -5z"/>
<path d="M6810 11341 c0 -5 -8 -11 -17 -15 -10 -3 -27 -11 -38 -18 -11 -7 -38
-25 -60 -39 -22 -14 -47 -29 -55 -32 -10 -4 -8 -6 7 -6 20 -1 150 75 181 106
11 11 11 13 -2 13 -9 0 -16 -4 -16 -9z"/>
<path d="M6978 11233 c6 -2 18 -2 25 0 6 3 1 5 -13 5 -14 0 -19 -2 -12 -5z"/>
<path d="M6590 11210 c0 -5 -7 -10 -15 -10 -9 0 -21 -5 -28 -10 -20 -17 -129
-80 -138 -80 -5 0 -9 -3 -9 -7 0 -8 -47 -33 -62 -33 -4 0 -45 -24 -90 -53 -46
-29 -105 -63 -133 -77 -27 -13 -70 -38 -95 -55 -25 -16 -72 -44 -105 -61 -126
-65 -165 -89 -165 -101 0 -7 9 -13 20 -13 11 0 20 5 20 10 0 6 5 10 11 10 5 0
36 17 67 38 31 22 75 47 97 58 42 19 137 75 158 92 20 17 87 52 98 52 5 0 19
9 31 20 12 11 28 20 35 20 7 0 13 3 13 8 0 4 25 20 55 37 30 16 55 33 55 37 0
4 7 8 15 8 17 0 77 32 120 64 17 13 44 30 60 39 27 15 28 16 8 17 -13 0 -23
-4 -23 -10z"/>
<path d="M6845 11162 c-16 -9 -32 -20 -35 -24 -3 -4 -19 -14 -35 -22 -24 -13
-26 -16 -10 -16 11 0 31 9 45 20 14 11 36 29 50 40 31 24 25 25 -15 2z"/>
<path d="M6640 11043 c-25 -14 -56 -33 -70 -43 -14 -9 -32 -20 -40 -23 -10 -4
-7 -6 8 -6 12 -1 22 2 22 7 0 4 17 15 38 25 35 17 104 66 92 66 -3 0 -25 -11
-50 -26z"/>
<path d="M6498 10953 c7 -3 16 -2 19 1 4 3 -2 6 -13 5 -11 0 -14 -3 -6 -6z"/>
<path d="M6413 10917 c-15 -12 -48 -33 -73 -46 -25 -14 -47 -27 -50 -30 -9
-10 -49 -31 -60 -31 -6 0 -42 -20 -80 -45 -38 -25 -73 -45 -78 -45 -4 0 -17
-8 -28 -17 -10 -10 -32 -24 -49 -32 -61 -28 -110 -54 -125 -67 -8 -7 -46 -29
-85 -49 -149 -79 -211 -120 -196 -129 11 -7 91 25 91 36 0 5 5 8 10 8 6 0 32
15 59 33 26 18 63 40 82 47 19 8 43 22 53 32 11 10 24 18 28 18 5 0 40 20 78
45 38 25 74 45 80 45 12 0 48 20 66 36 7 6 36 26 66 45 29 18 55 36 58 39 9 9
50 30 59 30 6 0 45 22 88 50 53 34 71 50 56 50 -12 0 -34 -10 -50 -23z"/>
</g>
</svg>
